# xmcd
#
# Track frame offsets:
#	150
#	15732
#	28862
#	41840
#	60122
#	73014
#	84864
#	100621
#	112720
#	123305
#	133335
#	146169
#	157453
#	166930
#	183187
#
# Disc length: 2669 seconds
#
# Revision: 1
# Processed by: cddbd v1.5.2PL0 Copyright (c) Steve Scherf et al.
# Submitted via: audiograbber 1.83.01
#
DISCID=c60a6b0f
DTITLE=VÁRIOS - BAIÃO DE DOIS
DYEAR=1900
DGENRE=FORRÓ
TTITLE0=LUIZ GONZAGA E FAGNER - ASA BRANCA
TTITLE1=LUIZ GONZAGA E ZECA PAGODINHO - SIRI JOGANDO BOLA
TTITLE2=LUIZ GONZAGA E DOMINGUINHOS - FORRÓ DE CABO A RABO
TTITLE3=LUIZ GONZAGA E IVETE SANGALO - NEM SE DESPEDIU DE MIM
TTITLE4=LUIZ GONZAGA E CHICO CÉSAR - ESTRADA DE CANINDÉ
TTITLE5=LUIZ GONZAGA E ZECA BALEIRO - DANADO DE BOM
TTITLE6=LUIZ GONZAGA E ZÉLIA DUNCAN - QUI NEM GILÓ
TTITLE7=LUIZ GONZAGA E ZÉ RAMALHO - A VOLTA DA ASA BRANCA
TTITLE8=LUIZ GONZAGA E JORGE DE ALTINHO - DEIXA A TANGA VOAR
TTITLE9=LUIZ GONZAGA E ALCIONE - BAIÃO DE DOIS
TTITLE10=LUIZ GONZAGA E GERALDO AZEVEDO - ONDE TU TÁ NENÉM
TTITLE11=LUIZ GONZAGA E ELBA RAMALHO - PARAÍBA
TTITLE12=LUIZ GONZAGA E ALCEU VALENÇA - PLANO PILOTO
TTITLE13=LUIZ GONZAGA E GAL COSTA - FORRÓ NÚMERO 1
TTITLE14=LUIZ GONZAGA E GONZAGUINHA - A VIDA DO VIAJANTE
EXTD=
EXTT0=
EXTT1=
EXTT2=
EXTT3=
EXTT4=
EXTT5=
EXTT6=
EXTT7=
EXTT8=
EXTT9=
EXTT10=
EXTT11=
EXTT12=
EXTT13=
EXTT14=
PLAYORDER=
